<?xml version="1.0" encoding="utf-8"?>
<!-- Generator: Adobe Illustrator 16.0.4, SVG Export Plug-In . SVG Version: 6.00 Build 0)  -->
<!DOCTYPE svg PUBLIC "-//W3C//DTD SVG 1.1//EN" "http://www.w3.org/Graphics/SVG/1.1/DTD/svg11.dtd">
<svg version="1.1" id="Calque_1" xmlns="http://www.w3.org/2000/svg" xmlns:xlink="http://www.w3.org/1999/xlink" x="0px" y="0px"
	 width="13px" height="16px" viewBox="0 0 13 16" enable-background="new 0 0 13 16" xml:space="preserve">
<g>
	<path fill="#010202" d="M3,2C3,3,3,2,3,2v2h2V2h3v2h2V2c0,0,0,1,0,0c0-2-1-2-2-2S7,0,5,0S3,1,3,2z"/>
	<g>
		<path fill="#010202" d="M13,3.5C13,3.225,12.775,3,12.5,3h-12C0.225,3,0,3.225,0,3.5v1C0,4.775,0.225,5,0.5,5l0,0
			C0.775,5,1,5.225,1,5.5v10C1,15.775,1.225,16,1.5,16h10c0.275,0,0.5-0.225,0.5-0.5v-10C12,5.225,12.225,5,12.5,5l0,0
			C12.775,5,13,4.775,13,4.5V3.5z M4,13.5C4,13.775,3.775,14,3.5,14l0,0C3.225,14,3,13.775,3,13.5V6.086c0-0.275,0.225-0.5,0.5-0.5
			l0,0c0.275,0,0.5,0.225,0.5,0.5V13.5z M7,13.5C7,13.775,6.775,14,6.5,14l0,0C6.225,14,6,13.775,6,13.5V6.086
			c0-0.275,0.225-0.5,0.5-0.5l0,0c0.275,0,0.5,0.225,0.5,0.5V13.5z M10,13.5c0,0.275-0.225,0.5-0.5,0.5l0,0
			C9.225,14,9,13.775,9,13.5V6.086c0-0.275,0.225-0.5,0.5-0.5l0,0c0.275,0,0.5,0.225,0.5,0.5V13.5z"/>
	</g>
</g>
</svg>
